<?xml version="1.0" standalone="no"?>
<!DOCTYPE svg PUBLIC "-//W3C//DTD SVG 1.1//EN" "http://www.w3.org/Graphics/SVG/1.1/DTD/svg11.dtd" >
<svg xmlns="http://www.w3.org/2000/svg">
<metadata>Generated by IcoMoon</metadata>
<defs>
<font id="icomoon" horiz-adv-x="1024">
<font-face units-per-em="1024" ascent="960" descent="-64" />
<missing-glyph horiz-adv-x="1024" />
<glyph unicode="&#x20;" horiz-adv-x="512" d="" />
<glyph unicode="&#xe600;" glyph-name="gallery" d="M153.984 783.306h296.96v-296.96h-296.96v296.96zM573.056 783.306h296.928v-296.96h-296.928v296.96zM153.984 367.018h296.96v-296.928h-296.96v296.928zM573.056 367.018h296.928v-296.928h-296.928v296.928z" />
<glyph unicode="&#xe601;" glyph-name="loading" d="M689.76 20.074c-236.384-97.984-508.352 14.56-606.336 250.88-98.016 236.352 14.496 508.352 250.848 606.336 20.448 8.48 43.84-1.216 52.288-21.6 8.448-20.416-1.216-43.84-21.664-52.288-195.552-81.12-288.672-306.24-207.584-501.888 81.088-195.488 306.176-288.672 501.76-207.552 195.616 81.12 288.736 306.112 207.68 501.824-39.36 94.784-113.12 168.608-207.936 207.744-20.448 8.448-30.112 31.872-21.696 52.288 8.448 20.384 31.744 30.112 52.256 21.696 114.496-47.36 203.808-136.576 251.264-251.104 97.984-236.448-14.592-508.416-250.88-606.336z" />
<glyph unicode="&#xe602;" glyph-name="arrow3-down" d="M792.736 500.234c-20.832-21.408-240.384-230.56-240.384-230.56-11.168-11.424-25.76-17.088-40.352-17.088-14.656 0-29.248 5.696-40.352 17.088 0 0-219.552 209.152-240.448 230.56-20.832 21.408-22.272 59.84 0 82.752 22.336 22.848 53.408 24.64 80.704 0l200.096-191.904 200.032 191.84c27.328 24.64 58.464 22.848 80.704 0 22.336-22.848 20.928-61.344 0-82.688z" />
<glyph unicode="&#xe603;" glyph-name="arrow4-down" d="M132.192 651.882c-13.888 13.728-36.288 13.728-50.112 0-13.824-13.664-13.824-35.904 0-49.6l404.896-400.896c13.888-13.728 36.256-13.728 50.112 0l404.896 400.896c13.824 13.728 13.888 35.904 0 49.6s-36.352 13.728-50.112 0.064l-379.84-365.632-379.808 365.568z" />
<glyph unicode="&#xe604;" glyph-name="arrow3-left" d="M585.568 707.434c-21.408-20.896-230.496-240.448-230.496-240.448-11.424-11.168-17.088-25.76-17.088-40.352s5.696-29.184 17.088-40.352c0 0 209.088-219.552 230.496-240.384 21.408-20.896 59.904-22.336 82.752 0 22.784 22.272 24.576 53.344-0.064 80.64l-191.84 200.096 191.84 200.096c24.64 27.328 22.848 58.432 0.064 80.704-22.88 22.272-61.376 20.896-82.752 0z" />
<glyph unicode="&#xe605;" glyph-name="arrow4-left" d="M737.216 46.858c13.728-13.888 13.728-36.256 0-50.112s-35.904-13.888-49.6 0l-400.896 404.832c-13.728 13.888-13.728 36.288 0 50.112l400.896 404.896c13.728 13.888 35.904 13.888 49.6 0s13.728-36.256 0-50.112l-365.568-379.808 365.568-379.808z" />
<glyph unicode="&#xe606;" glyph-name="arrow3-right" d="M438.432 707.434c21.408-20.896 230.496-240.448 230.496-240.448 11.456-11.168 17.152-25.76 17.152-40.352s-5.696-29.184-17.152-40.352c0 0-209.088-219.552-230.496-240.384-21.408-20.896-59.84-22.336-82.752 0-22.848 22.272-24.64 53.344 0 80.64l191.904 200.096-191.84 200.096c-24.64 27.328-22.848 58.432 0 80.704s61.344 20.896 82.688 0z" />
<glyph unicode="&#xe607;" glyph-name="arrow3-up" d="M792.736 353.098c-20.832 21.408-240.384 230.496-240.384 230.496-11.168 11.424-25.76 17.152-40.352 17.152-14.656 0-29.248-5.728-40.352-17.152 0 0-219.552-209.088-240.448-230.496-20.832-21.408-22.272-59.904 0-82.752 22.336-22.784 53.408-24.64 80.704 0l200.096 191.84 200.032-191.84c27.328-24.64 58.464-22.784 80.704 0 22.336 22.88 20.928 61.376 0 82.752z" />
<glyph unicode="&#xe608;" glyph-name="arrow4-up" d="M891.808 201.45c13.888-13.728 36.288-13.728 50.112 0 13.888 13.728 13.888 35.904 0 49.6l-404.896 400.896c-13.824 13.728-36.256 13.728-50.080 0l-404.896-400.896c-13.824-13.728-13.888-35.904 0-49.6s36.256-13.728 50.112 0l379.808 365.632 379.808-365.632z" />
<glyph unicode="&#xe609;" glyph-name="arrow4-right" d="M286.72 46.858c-13.728-13.888-13.728-36.256 0-50.112s35.904-13.888 49.6 0l400.896 404.832c13.728 13.888 13.728 36.288 0 50.112l-400.896 404.896c-13.728 13.888-35.904 13.888-49.6 0s-13.728-36.256 0-50.112l365.568-379.808-365.568-379.808z" />
<glyph unicode="&#xe60a;" glyph-name="bag" d="M927.84 750.922c-15.168 13.12-97.6 75.52-112.992 88.768s-39.488 17.056-56.48 17.056h-492.736c-16.96 0-41.056-3.744-56.416-17.056-15.424-13.312-97.856-75.712-112.992-88.768s-27.808-32.832-23.744-60.992c4.032-28.16 99.168-664.224 99.168-664.224 5.312-16.032 23.552-29.12 40.544-29.12h599.712c16.992 0 35.232 13.152 40.544 29.12 0 0 95.072 636.064 99.168 664.224 4 28.16-8.608 47.872-23.744 60.992zM512 305.418c-166.304 0-201.888 235.36-209.248 283.84h94.048c14.176-70.752 46.4-191.68 115.2-191.68s101.056 120.928 115.264 191.68h94.016c-7.36-48.48-42.944-283.84-209.248-283.84zM151.712 682.666l112.96 117.76h494.688l112.96-117.76h-720.576z" />
<glyph unicode="&#xe60b;" glyph-name="cart" d="M204.8 68.266c0-56.512 45.888-102.4 102.4-102.4 56.576 0 102.4 45.888 102.4 102.4s-45.824 102.4-102.4 102.4c-56.512 0-102.4-45.888-102.4-102.4zM716.8 68.266c0-56.512 45.888-102.4 102.4-102.4 56.576 0 102.4 45.888 102.4 102.4s-45.824 102.4-102.4 102.4c-56.512 0-102.4-45.888-102.4-102.4zM386.4 310.346l566.72 161.888c10.816 3.136 19.648 14.848 19.648 26.112v281.6h-721.92v87.040c0 11.264-9.152 20.48-20.48 20.48h-158.72c-11.264 0-20.48-9.216-20.48-20.48v-81.92h99.488l100.768-463.712 9.728-48.288v-76.8c0-11.264 9.216-20.48 20.416-20.48h670.784c11.2 0 20.416 9.216 20.416 20.48v76.8h-575.904c-58.816 0-60.064 23.040-10.496 37.28z" />
<glyph unicode="&#xe60c;" glyph-name="circle-cross" d="M512 896.010q95.68 0 182.496-37.152t149.664-100 100-149.664 37.152-182.496-37.152-182.496-100-149.664-149.664-100-182.496-37.152-182.496 37.152-149.664 100-100 149.664-37.152 182.496 37.152 182.496 100 149.664 149.664 100 182.496 37.152zM512 810.666q-78.016 0-149.152-30.496t-122.496-81.824-81.824-122.496-30.496-149.152 30.496-149.152 81.824-122.496 122.496-81.824 149.152-30.496 149.152 30.496 122.496 81.824 81.824 122.496 30.496 149.152-30.496 149.152-81.824 122.496-122.496 81.824-149.152 30.496zM632.672 590.346q17.664 0 30.336-12.512t12.672-30.176-12.672-30.336l-90.656-90.656 90.656-90.336q12.672-12.672 12.672-30.016 0-17.664-12.672-30.176t-30.336-12.512-30.016 12.32l-90.656 90.336-90.336-90.336q-12.32-12.32-30.336-12.32-17.664 0-30.176 12.32t-12.512 30.016q0 18.016 12.32 30.336l90.656 90.336-90.656 90.656q-12.32 12.32-12.32 30.016t12.512 30.336 30.176 12.672 30.336-12.672l90.336-90.656 90.656 90.656q12.672 12.672 30.016 12.672z" />
<glyph unicode="&#xe60d;" glyph-name="cross" d="M810.656 768.010q18.336 0 30.496-12.16t12.16-30.496q0-18.016-12.32-30.336l-268.672-268.32 268.672-268.32q12.32-12.32 12.32-30.336 0-18.336-12.16-30.496t-30.496-12.16q-18.016 0-30.336 12.32l-268.32 268.672-268.32-268.672q-12.32-12.32-30.336-12.32-18.336 0-30.496 12.16t-12.16 30.496q0 18.016 12.32 30.336l268.672 268.32-268.672 268.32q-12.32 12.32-12.32 30.336 0 18.336 12.16 30.496t30.496 12.16q18.016 0 30.336-12.32l268.32-268.672 268.32 268.672q12.32 12.32 30.336 12.32z" />
<glyph unicode="&#xe60e;" glyph-name="export" d="M768 129.706h-665.6v460.8h132.864c0 0 35.264 45.888 111.104 102.4h-295.168c-28.256 0-51.2-22.944-51.2-51.2v-563.2c0-28.32 22.944-51.2 51.2-51.2h768c28.32 0 51.2 22.88 51.2 51.2v191.808l-102.4-84.224v-56.384zM684.128 485.546v-181.76l339.872 266.304-339.872 255.936v-160.256c-412.768-0.064-412.768-408.064-412.768-408.064 116.832 191.904 188.736 227.84 412.768 227.84z" />
<glyph unicode="&#xe60f;" glyph-name="facebook" d="M768 727.274h-146.24c-17.312 0-36.608-22.72-36.608-53.184v-105.568h182.848v-150.528h-182.848v-452.096h-172.64v452.032h-156.512v150.592h156.512v88.576c0 127.040 88.16 230.4 209.216 230.4h146.272v-160.192z" />
<glyph unicode="&#xe610;" glyph-name="flickr" d="M252.064 221.866c-110.944 0-200.864 91.584-200.864 204.8s89.92 204.8 200.864 204.8c110.944 0 200.896-91.648 200.896-204.8s-89.952-204.8-200.896-204.8zM771.904 221.866c-111.008 0-201.024 91.584-201.024 204.8s90.016 204.8 201.024 204.8c110.912 0 200.896-91.648 200.896-204.8s-90.016-204.8-200.896-204.8z" />
<glyph unicode="&#xe611;" glyph-name="forward" d="M602.88 324.874v-223.072l369.92 342.528-369.92 330.496v-197.952c-449.28 0-551.68-498.368-551.68-498.368 127.136 224.768 307.808 246.368 551.68 246.368z" />
<glyph unicode="&#xe612;" glyph-name="googleplus" d="M101.888 652.522c0-76.448 25.536-131.68 75.872-164.096 41.216-26.56 89.088-30.56 113.984-30.56 6.048 0 10.848 0.256 14.24 0.448 0 0-7.872-51.36 30.208-102.208l-1.728 0.064c-65.984 0-281.28-13.824-281.28-190.816 0-180.064 197.728-189.184 237.376-189.184 3.136 0 4.928 0.064 4.928 0.064 0.448 0 3.264-0.096 8.096-0.096 25.44 0 91.232 3.168 152.384 32.928 79.264 38.464 119.488 105.408 119.488 198.912 0 90.368-61.248 144.128-105.984 183.456-27.296 23.968-50.88 44.64-50.88 64.768 0 20.48 17.216 35.904 39.008 55.392 35.232 31.552 68.512 76.448 68.512 161.344 0 74.656-9.664 124.736-69.312 156.48 6.24 3.168 28.224 5.472 39.104 7.008 32.32 4.416 79.552 9.408 79.552 35.776v5.056h-235.424c-2.368-0.064-238.080-8.8-238.080-224.704zM481.952 191.050c4.512-72-57.088-125.12-149.568-131.84-93.888-6.912-171.264 35.392-175.776 107.36-2.144 34.56 12.992 68.416 42.752 95.392 30.208 27.296 71.584 44.128 116.672 47.52 5.312 0.32 10.592 0.576 15.872 0.576 86.88 0 145.76-51.104 150.016-118.976zM420.448 701.802c23.104-81.248-11.776-166.208-67.328-181.856-6.4-1.792-12.992-2.72-19.648-2.72-50.944 0-101.376 51.52-120.064 122.464-10.432 39.872-9.632 74.688 2.368 108.224 11.776 32.928 32.928 55.232 59.552 62.72 6.4 1.856 13.056 2.72 19.712 2.72 61.44 0 100.96-25.504 125.44-111.552zM817.216 524.874v153.6h-97.28v-153.6h-153.6v-97.28h153.6v-153.6h97.28v153.6h153.6v97.28h-153.6z" />
<glyph unicode="&#xe613;" glyph-name="heart" d="M880.064 726.122c-85.6 78.592-224.416 78.592-310.016 0l-58.048-53.344-58.112 53.344c-85.6 78.592-224.352 78.592-309.952 0-96.32-88.384-96.32-231.616 0-320.064l368.064-337.824 368.064 337.824c96.32 88.416 96.32 231.68 0 320.064z" />
<glyph unicode="&#xe614;" glyph-name="heart2" d="M880.064 726.186c-85.6 78.528-224.416 78.528-310.016 0l-58.048-53.344-58.112 53.344c-85.6 78.528-224.352 78.528-309.952 0-96.32-88.416-96.32-231.616 0-320.064l368.064-337.856 368.064 337.856c96.32 88.384 96.32 231.616 0 320.064zM825.6 458.666l-313.6-292.544-313.536 292.544c-31.648 28.992-43.872 67.168-43.872 107.52 0 40.256 7.072 73.312 38.72 102.336 27.904 25.664 65.44 39.744 105.568 39.744 40.192 0 77.728-24.384 105.632-50.016l107.52-93.504 107.52 93.504c27.904 25.664 65.376 50.016 105.568 50.016s77.728-14.080 105.664-39.744c31.584-29.024 38.592-62.112 38.72-102.336 0-40.288-12.288-78.528-43.872-107.52z" />
<glyph unicode="&#xe615;" glyph-name="help" d="M505.76 897.642c-260.16-3.488-468.224-217.184-464.736-477.344 3.488-260 217.184-468.128 477.344-464.64 260.032 3.488 468.16 217.184 464.64 477.344-3.424 260.032-217.152 468.128-477.248 464.64zM504.384 139.946h-2.624c-40.032 1.184-68.288 30.72-67.168 70.208 1.12 38.752 30.048 66.976 68.8 66.976l2.368-0.064c41.152-1.216 69.12-30.464 67.904-71.072-1.12-38.848-29.632-66.048-69.28-66.048zM672.864 474.378c-9.472-13.376-30.144-30.016-56.256-50.336l-28.768-19.872c-15.776-12.288-25.28-23.808-28.832-35.136-2.88-9.024-4.192-11.328-4.448-29.504l-0.064-4.672h-109.728l0.32 9.312c1.344 38.208 2.304 60.608 18.112 79.2 24.832 29.12 79.616 64.416 81.92 65.888 7.84 5.952 14.432 12.64 19.392 19.808 11.52 15.872 16.576 28.416 16.576 40.64 0 17.056-5.056 32.832-15.040 46.848-9.632 13.568-27.904 20.416-54.336 20.416-26.208 0-44.128-8.352-54.88-25.408-11.104-17.568-16.64-35.936-16.64-54.784v-4.704h-113.152l0.192 4.928c2.912 69.312 27.648 119.2 73.536 148.32 28.768 18.592 64.608 27.968 106.4 27.968 54.72 0 101.024-13.312 137.376-39.52 36.864-26.56 55.552-66.4 55.552-118.336 0-29.088-9.152-56.384-27.232-81.152z" />
<glyph unicode="&#xe616;" glyph-name="info" d="M505.696 897.642c-260.096-3.488-468.16-217.184-464.704-477.344 3.488-260 217.184-468.128 477.28-464.64s468.16 217.184 464.704 477.344c-3.424 260.032-217.184 468.128-477.28 464.64zM557.92 740.682c47.872 0 62.016-27.744 62.016-59.552 0-39.68-31.808-76.384-86.016-76.384-45.376 0-66.912 22.848-65.632 60.512 0 31.808 26.624 75.424 89.664 75.424zM435.136 132.266c-32.704 0-56.672 19.872-33.792 107.2l37.536 154.816c6.496 24.832 7.584 34.752 0 34.752-9.792 0-52.288-17.152-77.408-34.048l-16.32 26.784c79.616 66.464 171.168 105.472 210.368 105.472 32.704 0 38.144-38.72 21.824-98.24l-43.008-162.816c-7.584-28.768-4.288-38.72 3.264-38.72 9.792 0 41.984 11.872 73.632 36.768l18.496-24.832c-77.376-77.376-161.792-107.168-194.56-107.168z" />
<glyph unicode="&#xe617;" glyph-name="instagram" d="M778.24 426.666c0-147.040-119.232-266.24-266.24-266.24-147.040 0-266.24 119.2-266.24 266.24 0 17.504 1.728 34.624 5.024 51.2h-179.104v-353.888c0-75.968 61.536-137.632 137.632-137.632h605.376c75.968 0 137.632 61.6 137.632 137.632v353.888h-179.040c3.232-16.576 4.96-33.696 4.96-51.2zM814.688 866.986h-605.376c-76.032 0-137.632-61.632-137.632-137.632v-149.088h222.912c48.192 68.096 127.584 112.64 217.408 112.64s169.216-44.544 217.408-112.64h222.912v149.088c0 75.968-61.632 137.632-137.632 137.632zM882.016 697.002c0-13.568-11.072-24.576-24.576-24.576h-73.664c-13.504 0-24.576 11.072-24.576 24.576v73.728c0 13.568 11.104 24.576 24.576 24.576h73.664c13.568 0 24.576-11.072 24.576-24.576v-73.728zM675.84 426.666c0 90.528-73.376 163.84-163.84 163.84s-163.84-73.312-163.84-163.84 73.376-163.84 163.84-163.84 163.84 73.312 163.84 163.84z" />
<glyph unicode="&#xe618;" glyph-name="linkedin" d="M259.904 782.506c0-54.432-40.192-98.496-106.304-98.496-62.208 0-102.4 44.096-102.4 98.496 0 55.712 41.536 98.496 105.024 98.496s102.4-42.816 103.68-98.496zM56.416-27.67v633.856h197.024v-633.856h-197.024zM371.36 403.978c0 79.040-2.624 145.152-5.216 202.176h171.104l9.12-88.16h3.904c25.92 41.536 89.44 102.4 195.744 102.4 129.6 0 226.816-86.848 226.816-273.504v-374.624h-197.024v351.296c0 81.664-28.576 137.408-99.84 137.408-54.432 0-86.784-37.568-101.056-73.888-5.216-12.96-6.496-31.072-6.496-49.248v-365.568h-197.024v431.712z" />
<glyph unicode="&#xe619;" glyph-name="mail" d="M81.6 668.010c24.992-13.472 371.136-199.36 384.064-206.272 12.864-6.912 29.536-10.24 46.336-10.24 16.832 0 33.536 3.328 46.4 10.304 12.896 6.912 359.008 192.832 384 206.272 25.024 13.408 48.704 55.552 2.752 55.552h-866.24c-45.92 0-22.336-42.144 2.72-55.616zM952.992 565.61c-28.416-14.848-377.184-197.184-394.592-206.272s-29.536-10.304-46.4-10.304c-16.8 0-28.928 1.184-46.336 10.304s-366.24 191.488-394.592 206.272c-20.032 10.432-19.872-1.792-19.872-11.2s0-375.552 0-375.552c0-21.504 28.608-49.152 50.784-49.152h820.064c22.208 0 50.752 27.648 50.752 49.088 0 0 0 366.144 0 375.552 0 9.472 0.192 21.696-19.808 11.264z" />
<glyph unicode="&#xe61a;" glyph-name="maximize" d="M597.344 384.33q17.664 0 30.336-12.672l268.32-268.32v195.68q0 17.664 12.512 30.176t30.176 12.512 30.176-12.512 12.512-30.176v-298.656q0-17.664-12.672-30.336t-30.336-12.672h-298.656q-17.664 0-30.176 12.512t-12.512 30.176 12.512 30.176 30.176 12.512h195.68l-268.32 268.32q-12.32 12.992-12.32 30.336 0 17.664 12.512 30.336t30.176 12.672zM85.344 896.010h298.656q17.664 0 30.176-12.512t12.512-30.176-12.512-30.176-30.176-12.512h-195.68l268.32-268q12.672-12.672 12.672-30.336t-12.672-30.176-30.336-12.512q-16.992 0-30.336 12.32l-268 268.32v-195.68q0-17.664-12.512-30.176t-30.176-12.512-30.176 12.512-12.512 30.176v298.656q0 17.664 12.512 30.176t30.176 12.512z" />
<glyph unicode="&#xe61b;" glyph-name="minus" d="M128 469.322h768q17.664 0 30.176-12.512t12.512-30.176-12.512-30.176-30.176-12.512h-768q-17.664 0-30.176 12.512t-12.512 30.176 12.512 30.176 30.176 12.512z" />
<glyph unicode="&#xe61c;" glyph-name="pinterest" d="M441.152 261.386c-26.88-140.96-59.712-276.128-156.992-346.72-30.016 213.088 44.096 373.088 78.496 542.976-58.688 98.816 7.072 297.568 130.88 248.576 152.32-60.256-131.904-367.264 58.88-405.6 199.232-40.032 280.512 345.6 157.024 470.976-178.496 181.152-519.584 4.192-477.6-255.040 10.176-63.392 75.68-82.624 26.176-170.080-114.24 25.28-148.32 115.392-143.936 235.52 7.072 196.544 176.64 334.176 346.72 353.216 215.136 24.128 417.024-78.944 444.832-281.28 31.392-228.352-97.024-475.712-327.104-457.888-62.304 4.768-88.48 35.648-137.376 65.344z" />
<glyph unicode="&#xe61d;" glyph-name="plus" d="M512 853.322q17.664 0 30.176-12.512t12.512-30.176v-341.344h341.344q17.664 0 30.176-12.512t12.512-30.176-12.512-30.176-30.176-12.512h-341.344v-341.344q0-17.664-12.512-30.176t-30.176-12.512-30.176 12.512-12.512 30.176v341.344h-341.344q-17.664 0-30.176 12.512t-12.512 30.176 12.512 30.176 30.176 12.512h341.344v341.344q0 17.664 12.512 30.176t30.176 12.512z" />
<glyph unicode="&#xe61e;" glyph-name="rss" d="M102.496 795.37v-121.248c362.816 0 656.896-294.144 656.896-656.96h121.28c0 429.76-348.416 778.176-778.176 778.176zM102.496 552.81v-121.28c228.864 0 414.4-185.504 414.4-414.368h121.184c0 295.776-239.776 535.648-535.616 535.648zM218.72 249.61c-64.16 0-116.224-52.064-116.224-116.288s52.064-116.224 116.224-116.224c64.192 0 116.288 52.032 116.288 116.224s-52.064 116.288-116.288 116.288z" />
<glyph unicode="&#xe61f;" glyph-name="share" d="M768 273.066c-35.232 0-67.488-11.936-93.376-31.84l-267.2 160.32c1.28 8.192 2.208 16.576 2.208 25.152 0 8.608-0.928 16.96-2.208 25.152l267.2 160.32c25.92-19.904 58.176-31.84 93.376-31.84 84.8 0 153.6 68.768 153.6 153.6s-68.8 153.6-153.6 153.6-153.6-68.768-153.6-153.6c0-8.544 0.928-16.96 2.24-25.152l-267.2-160.352c-25.92 19.968-58.208 31.904-93.44 31.904-84.832 0-153.6-68.768-153.6-153.6 0-84.8 68.768-153.6 153.6-153.6 35.232 0 67.52 11.936 93.44 31.84l267.2-160.32c-1.344-8.192-2.24-16.544-2.24-25.152 0-84.8 68.8-153.6 153.6-153.6s153.6 68.8 153.6 153.6-68.8 153.6-153.6 153.6z" />
<glyph unicode="&#xe620;" glyph-name="skype" d="M955.968 322.314c6.816 31.936 10.4 65.12 10.4 99.232 0 255.296-201.152 462.272-449.344 462.272-26.176 0-51.872-2.368-76.8-6.752-40.256 26.016-87.712 41.12-138.688 41.12-143.872 0-260.544-120.064-260.544-268.128 0-49.472 13.12-95.808 35.84-135.584-5.952-30.016-9.12-61.088-9.12-92.928 0-255.296 201.216-462.272 449.344-462.272 28.096 0 55.648 2.656 82.272 7.744 36.672-20.288 78.592-31.808 123.136-31.808 143.968 0 260.608 120 260.608 268.096 0 42.752-9.792 83.2-27.072 119.040zM747.456 200.554c-20.8-30.272-51.52-54.272-91.296-71.264-39.424-16.832-86.592-25.408-140.384-25.408-64.576 0-118.624 11.68-160.864 34.752-30.208 16.736-55.104 39.488-73.984 67.488-19.104 28.352-28.768 56.48-28.768 83.552 0 16.96 6.304 31.648 18.752 43.68 12.352 11.872 28.096 17.984 46.912 17.984 15.424 0 28.768-4.768 39.584-14.144 10.336-9.056 19.2-22.432 26.304-39.584 8-18.784 16.64-34.624 25.792-47.104 8.8-11.968 21.504-22.112 37.696-30.016 16.288-7.872 38.24-11.936 65.28-11.936 37.12 0 67.584 8.128 90.464 24.256 22.432 15.776 33.28 34.624 33.28 57.696 0 18.24-5.696 32.608-17.344 43.84-12.224 11.712-28.416 20.896-47.968 27.2-20.416 6.56-48.192 13.632-82.432 20.992-46.656 10.304-86.272 22.464-117.76 36.256-32.16 14.016-58.176 33.6-77.152 58.048-19.296 24.768-29.088 56-29.088 92.672 0 34.912 10.24 66.4 30.528 93.536 20.128 26.944 49.408 47.936 87.2 62.304 37.312 14.176 81.728 21.408 131.904 21.408 40.128 0 75.424-4.8 104.864-14.176 29.6-9.536 54.592-22.336 74.176-38.080 19.776-15.936 34.464-32.928 43.712-50.496 9.312-17.856 14.016-35.584 14.016-52.736 0-16.544-6.208-31.552-18.432-44.64-12.288-13.152-27.84-19.808-46.144-19.808-16.576 0-29.632 4.192-38.72 12.384-8.384 7.616-17.152 19.616-26.784 36.704-11.2 21.952-24.768 39.232-40.288 51.36-15.168 11.84-40.352 17.856-75.072 17.856-32.192 0-58.432-6.656-77.888-19.808-18.784-12.704-27.84-27.2-27.84-44.352 0-10.56 2.912-19.36 8.96-26.88 6.4-8.032 15.36-15.104 26.784-20.928 11.776-6.080 23.968-10.944 36.16-14.432 12.48-3.52 33.44-8.8 62.208-15.68 36.352-8.032 69.728-17.056 99.264-26.72 29.952-9.824 55.808-22.016 76.896-36.096 21.504-14.432 38.56-32.96 50.624-55.040 12.096-22.208 18.24-49.6 18.24-81.408 0.064-38.208-10.496-72.864-31.392-103.264z" />
<glyph unicode="&#xe621;" glyph-name="star" d="M512 877.226l122.272-344.16h328.288l-267.872-202.144 95.744-354.816-278.432 212.672-278.432-212.672 95.744 354.816-267.872 202.144h328.288z" />
<glyph unicode="&#xe622;" glyph-name="star2" d="M962.56 533.066h-328.352l-122.272 344.16-122.208-344.16h-328.288l267.84-202.144-95.744-354.816 278.432 212.672 278.432-212.672-95.744 354.816 267.936 202.144zM511.936 289.258l-154.208-128.064 63.584 182.368-145.984 117.76 180.288-5.12 56.256 206.848 56.32-206.848 180.288 5.12-145.984-117.76 63.648-182.368-154.208 128.064z" />
<glyph unicode="&#xe623;" glyph-name="tag" d="M987.712 917.866c-5.536 16.128-22.976 24.64-38.976 19.040s-24.384-23.232-18.784-39.424c47.104-136.704-46.4-238.784-117.6-293.44l-28.832 41.664c-9.632 13.92-31.328 25.536-48.128 25.792l-161.536-0.768c-16.8 0.256-41.792-7.52-55.616-17.248l-475.968-337.312c-23.040-16.32-28.736-48.48-12.544-71.84l216.384-312.672c16.128-23.36 42.080-20.544 65.12-4.256l475.968 337.344c13.824 9.728 29.536 30.912 35.136 47.008l50.592 161.088c5.472 16.064 2.144 40.64-7.488 54.592l-17.6 25.408c95.68 73.984 195.008 204.896 139.872 364.992zM766.272 438.858c-36.928-26.176-87.744-17.056-113.6 20.288-25.792 37.312-16.832 88.768 20.064 114.944 29.28 20.8 67.328 19.264 94.72-0.928-13.824-8.384-23.232-13.216-25.024-14.080-15.264-7.264-21.824-25.696-14.592-41.152 5.216-11.2 16.192-17.824 27.712-17.824 4.352 0 8.8 0.96 12.992 2.976 9.792 4.672 20.384 10.336 31.392 16.96 4.928-30.368-7.072-62.304-33.632-81.152z" />
<glyph unicode="&#xe624;" glyph-name="tumblr" d="M798.72 7.018c-39.744-18.944-75.776-32.32-107.968-39.936-32.256-7.584-67.168-11.456-104.608-11.456-42.56 0-80.128 5.472-112.896 16.32-32.672 10.912-60.512 26.432-83.648 46.432-23.104 20.224-39.104 41.568-48.032 64.256-8.96 22.688-13.408 55.552-13.408 98.624v330.432h-102.848v133.312c36.544 12.032 67.936 29.184 93.952 51.648 26.112 22.432 47.008 49.408 62.816 80.896 15.776 31.488 26.56 71.488 32.576 120.128h132.352v-238.144h220.928v-147.872h-220.928v-241.6c0-54.592 2.88-89.664 8.64-105.216 5.632-15.456 16.288-27.84 31.808-37.12 20.672-12.48 44.192-18.752 70.72-18.752 47.168 0 94.016 15.52 140.608 46.496v-148.48z" />
<glyph unicode="&#xe625;" glyph-name="twitter" d="M983.040 718.858c-34.72-15.424-71.936-25.76-111.040-30.464 39.936 23.904 70.592 61.792 84.992 106.912-37.312-22.112-78.688-38.24-122.688-46.912-35.264 37.568-85.504 61.024-141.12 61.024-106.752 0-193.28-86.528-193.28-193.216 0-15.168 1.696-29.888 5.024-44.032-160.608 8.032-303.040 84.992-398.336 201.92-16.704-28.512-26.272-61.76-26.272-97.184 0-67.072 34.144-126.208 86.016-160.864-31.68 1.024-61.504 9.664-87.552 24.16 0-0.832 0-1.6 0-2.4 0-93.632 66.656-171.712 155.040-189.536-16.192-4.416-33.28-6.752-50.944-6.752-12.448 0-24.512 1.184-36.352 3.424 24.576-76.8 96-132.672 180.544-134.208-66.144-51.872-149.44-82.752-240.032-82.752-15.616 0-30.976 0.928-46.080 2.72 85.504-54.848 187.072-86.848 296.288-86.848 355.488 0 549.888 294.496 549.888 549.952 0 8.352-0.16 16.704-0.576 24.992 37.792 27.232 70.496 61.28 96.448 100.032z" />
<glyph unicode="&#xe626;" glyph-name="user" d="M758.784 198.922c-126.208 45.984-166.56 84.8-166.56 167.872 0 49.856 38.56 33.6 55.456 124.928 7.008 37.888 41.056 0.608 47.616 87.104 0 34.464-18.592 43.072-18.592 43.072s9.472 51.040 13.152 90.272c4.512 48.96-28.256 175.296-203.456 175.296-175.168 0-208.032-126.368-203.424-175.296 3.68-39.232 13.152-90.272 13.152-90.272s-18.624-8.544-18.624-43.072c6.496-86.464 40.544-49.216 47.552-87.104 16.96-91.328 55.488-75.072 55.488-124.928 0-83.104-40.352-121.92-166.56-167.872-126.656-46.080-208.896-93.12-208.896-125.248 0-32.064 0-107.776 0-107.776h962.56c0 0 0 75.712 0 107.776s-82.272 79.104-208.896 125.248z" />
<glyph unicode="&#xe627;" glyph-name="vimeo" d="M968.192 639.594c-51.52-295.52-339.2-545.792-425.728-602.944-86.592-57.152-165.472 22.88-194.144 83.456-32.768 68.96-131.008 443.232-156.768 474.176-25.696 31.072-102.912-30.912-102.912-30.912l-37.44 49.984c0 0 156.768 190.72 276.064 214.528 126.464 25.248 126.272-197.824 156.672-321.696 29.44-119.872 49.216-188.48 74.848-188.48 25.76 0 74.848 66.88 128.672 169.312 53.92 102.56-2.304 193.088-107.616 128.704 42.080 257.44 439.872 319.328 388.352 23.872z" />
<glyph unicode="&#xe628;" glyph-name="share2" d="M764.48-74.454h-504.992c-29.824 0-55.36 10.496-76.48 31.712-21.152 21.024-31.712 46.56-31.712 76.48v504.928c0 29.856 10.56 55.36 31.712 76.544 21.12 21.088 46.688 31.616 76.48 31.616h144.256v-72.096h-144.256c-9.952 0-18.4-3.552-25.504-10.592-7.040-7.104-10.56-15.552-10.56-25.536v-504.992c0-9.92 3.52-18.4 10.56-25.472 7.104-7.072 15.552-10.592 25.504-10.592h504.96c9.952 0 18.464 3.52 25.472 10.592 7.104 7.072 10.56 15.552 10.56 25.472v505.024c0 9.984-3.456 18.432-10.56 25.536-7.008 7.040-15.52 10.592-25.472 10.592h-144.32v72.064h144.32c29.888 0 55.36-10.56 76.48-31.648 21.184-21.184 31.712-46.688 31.712-76.544v-504.928c0-29.92-10.528-55.424-31.712-76.48-21.088-21.184-46.592-31.68-76.448-31.68zM512.032 927.786c10.176 0 18.72-3.424 25.664-10.4l144.256-144.256c6.976-6.976 10.432-15.488 10.432-25.664 0-9.952-3.52-18.464-10.56-25.472-7.136-7.104-15.584-10.592-25.536-10.592-9.824 0-18.368 3.424-25.632 10.4l-82.56 82.848v-453.984c0-9.952-3.552-18.432-10.592-25.472-7.072-7.072-15.52-10.56-25.504-10.56s-18.432 3.488-25.536 10.56c-6.976 7.040-10.56 15.52-10.56 25.472v453.984l-82.56-82.848c-7.296-6.976-15.808-10.4-25.632-10.4-9.952 0-18.432 3.488-25.536 10.592-7.008 7.040-10.56 15.552-10.56 25.472 0 9.76 3.488 18.304 10.432 25.664l144.288 144.256c6.88 6.976 15.424 10.4 25.632 10.4h0.064z" />
<glyph unicode="&#xe629;" glyph-name="mag" d="M893.248 114.762l-188.096 187.872c18.976 25.536 34.112 53.856 45.056 84.512 12.288 34.56 18.528 71.264 18.528 108.928 0 43.872-8.736 86.528-25.952 126.72-17.152 40.064-40.48 75.072-69.472 104s-63.968 52.32-103.936 69.472c-80.224 34.304-173.216 34.368-253.504-0.064-40.032-17.152-75.040-40.544-103.904-69.472-28.896-28.96-52.288-63.904-69.44-103.936-17.248-40.192-25.984-82.848-25.984-126.72 0.064-44 8.768-86.624 25.984-126.752 17.152-40 40.544-75.008 69.44-103.872 28.896-28.928 63.872-52.32 103.936-69.504 74.784-31.968 160.864-34.016 235.712-7.328 30.528 10.848 58.944 25.984 84.544 45.024l187.904-188.128c9.28-9.28 21.216-14.144 34.592-14.144 13.76 0 25.44 4.736 34.752 14.016 9.28 9.28 14.016 20.96 14.016 34.72-0.032 13.408-4.928 25.44-14.176 34.656zM671.264 496.074c0-30.848-6.080-60.672-18.048-88.704-12.032-28.192-28.48-52.8-48.704-72.992-20.384-20.384-44.96-36.768-73.088-48.736-56.096-24-121.312-24.064-177.408 0-28.128 11.968-52.672 28.384-73.024 48.736-20.288 20.192-36.704 44.8-48.736 72.992-12 28.032-18.080 57.888-18.080 88.704 0 30.784 6.080 60.64 18.080 88.672 12.032 28.128 28.416 52.704 48.736 72.992 20.288 20.32 44.832 36.704 73.024 48.768 28.192 12.032 58.016 18.112 88.672 18.112 30.688 0 60.544-6.080 88.704-18.112 28.192-12.064 52.768-28.48 73.056-48.768 20.32-20.288 36.704-44.864 48.736-72.992 11.968-28.064 18.080-57.888 18.080-88.672z" />
<glyph unicode="&#xe62a;" glyph-name="arrow2-left" d="M512 913.322c-268.768 0-486.624-217.952-486.624-486.656 0-268.8 217.856-486.688 486.624-486.688 268.832 0 486.656 217.888 486.656 486.656 0 268.736-217.824 486.688-486.656 486.688zM682.368 215.754l-113.6-113.6-324.384 324.48 324.384 324.416 113.6-113.568-210.944-210.848 210.944-210.88z" />
<glyph unicode="&#xe62b;" glyph-name="bag2" d="M833.92 575.85h-636.256c-49.6 0-33.248-40.64-33.248-90.176l42.72-436.96c0-49.632 40.608-47.52 90.176-47.52h436.928c49.6 0 97.312-2.080 97.312 47.52l35.584 436.96c0.032 49.568 16.384 90.176-33.216 90.176zM337.152 614.954c22.976 0 41.6 18.624 41.6 41.6 0 75.552 61.472 137.024 137.056 137.024 75.552 0 137.056-61.472 137.056-137.024 0-22.976 18.624-41.6 41.6-41.6s41.6 18.624 41.6 41.6c0 121.44-98.816 220.224-220.256 220.224s-220.256-98.784-220.256-220.224c0-22.976 18.624-41.6 41.6-41.6z" />
<glyph unicode="&#xe62c;" glyph-name="house" d="M938.56 412.074l-390.272 390.624c-19.904 20.704-52.576 20.704-72.512 0l-390.368-390.624c-20-20.672-12.544-37.632 16.544-37.632h81.376v-300.032c0-21.632 0.928-39.328 40.064-39.328h189.44v300.928h198.208v-300.928h198.88c29.888 0 30.688 17.632 30.688 39.328v300.032h81.376c29.024 0 36.512 16.896 16.576 37.632z" />
<glyph unicode="&#xe62d;" glyph-name="arrow2-right" d="M512.032-60.022c268.768 0 486.624 217.952 486.624 486.656 0 268.768-217.856 486.656-486.624 486.656-268.832 0.032-486.656-217.888-486.656-486.624s217.824-486.688 486.656-486.688zM341.664 637.514l113.6 113.568 324.384-324.416-324.384-324.448-113.6 113.568 210.944 210.88-210.944 210.848z" />
<glyph unicode="&#xe62e;" glyph-name="youtube" d="M986.88 620.426c0 0-9.44 66.784-38.496 96.192-36.864 38.592-78.176 38.752-97.12 41.024-135.648 9.824-339.008 9.824-339.008 9.824h-0.448c0 0-203.456 0-339.072-9.824-18.912-2.272-60.224-2.432-97.088-41.024-29.088-29.408-38.496-96.192-38.496-96.192s-9.696-78.432-9.696-156.864v-73.504c0-78.368 9.696-156.832 9.696-156.832s9.408-66.784 38.496-96.192c36.864-38.592 85.28-37.376 106.88-41.408 77.504-7.488 329.472-9.76 329.472-9.76s203.616 0.352 339.232 10.112c18.944 2.24 60.256 2.432 97.12 41.024 29.056 29.408 38.496 96.192 38.496 96.192s9.632 78.464 9.632 156.832v73.504c0.032 78.464-9.6 156.896-9.6 156.896zM411.968 300.97l-0.032 272.256 261.824-136.576-261.792-135.68z" />
<glyph unicode="&#xe62f;" glyph-name="nav" d="M119.136 638.186h785.792c31.328 0 56.864 23.872 56.864 53.312 0 29.408-25.568 53.344-56.864 53.344h-785.792c-31.392 0-56.928-23.936-56.928-53.344 0-29.44 25.536-53.312 56.928-53.312zM904.928 480.010h-785.792c-31.392 0-56.928-23.936-56.928-53.344s25.504-53.28 56.928-53.28h785.792c31.328 0 56.864 23.872 56.864 53.28 0.032 29.408-25.536 53.344-56.864 53.344zM904.928 215.114h-785.792c-31.392 0-56.928-23.936-56.928-53.312 0-29.44 25.504-53.312 56.928-53.312h785.792c31.328 0 56.864 23.872 56.864 53.312 0.032 29.376-25.536 53.312-56.864 53.312z" />
<glyph unicode="&#xe630;" glyph-name="tick" d="M941.952 761.066c13.696 0 25.12-4.512 34.176-13.632 9.12-9.088 13.632-20.48 13.632-34.112 0-13.44-4.576-24.768-13.824-33.984l-573.28-573.28c-9.184-9.216-20.512-13.792-33.952-13.792s-24.768 4.576-33.984 13.792l-286.624 286.624c-9.216 9.216-13.792 20.576-13.792 33.984 0 13.696 4.544 25.056 13.632 34.144 9.088 9.12 20.48 13.632 34.144 13.632 13.408 0 24.736-4.608 33.952-13.792l252.672-253.088 539.296 539.744c9.184 9.184 20.576 13.76 33.952 13.76z" />
<glyph unicode="&#xe631;" glyph-name="arrow-left" d="M426.656 768.010c11.776 0 21.824-4.16 30.176-12.512s12.512-18.4 12.512-30.176c0-12-4.224-22.112-12.672-30.336l-225.664-225.664h664.992c11.776 0 21.824-4.16 30.176-12.512 8.32-8.352 12.512-18.4 12.512-30.176s-4.192-21.856-12.512-30.144c-8.384-8.384-18.4-12.544-30.176-12.544h-664.992l225.664-225.664c8.448-8.224 12.672-18.304 12.672-30.336 0-11.776-4.16-21.856-12.512-30.144-8.352-8.384-18.4-12.544-30.176-12.544-12 0-22.112 4.096-30.336 12.32l-298.656 298.656c-8.192 8.672-12.32 18.784-12.32 30.336s4.096 21.664 12.32 30.336l298.656 298.656c8.448 8.224 18.56 12.32 30.336 12.32v0.128z" />
<glyph unicode="&#xe632;" glyph-name="arrow-down" d="M512 853.322q17.664 0 30.176-12.512t12.512-30.176v-664.992l225.664 226.016q12.32 12.32 30.336 12.32 18.336 0 30.496-12.16t12.16-30.496q0-18.016-12.32-30.336l-298.656-298.656q-12.32-12.32-30.336-12.32t-30.336 12.32l-298.656 298.656q-12.32 12.32-12.32 30.336 0 18.336 12.16 30.496t30.496 12.16q18.016 0 30.336-12.32l225.664-226.016v664.992q0 17.664 12.512 30.176t30.176 12.512z" />
<glyph unicode="&#xe633;" glyph-name="arrow-right" d="M597.344 768.010q18.016 0 30.336-12.32l298.656-298.656q12.32-12.32 12.32-30.336t-12.32-30.336l-298.656-298.656q-12.32-12.32-30.336-12.32-18.336 0-30.496 12.16t-12.16 30.496q0 18.016 12.32 30.336l226.016 225.664h-664.992q-17.664 0-30.176 12.512t-12.512 30.176 12.512 30.176 30.176 12.512h664.992l-226.016 225.664q-12.32 12.32-12.32 30.336 0 18.336 12.16 30.496t30.496 12.16z" />
<glyph unicode="&#xe634;" glyph-name="arrow-up" d="M512 853.322q18.016 0 30.336-12.32l298.656-298.656q12.32-12.32 12.32-30.336 0-18.336-12.16-30.496t-30.496-12.16q-18.016 0-30.336 12.32l-225.664 226.016v-664.992q0-17.664-12.512-30.176t-30.176-12.512-30.176 12.512-12.512 30.176v664.992l-225.664-226.016q-12.32-12.32-30.336-12.32-18.336 0-30.496 12.16t-12.16 30.496q0 18.016 12.32 30.336l298.656 298.656q12.32 12.32 30.336 12.32z" />
<glyph unicode="&#xe900;" glyph-name="tags" horiz-adv-x="1280" d="M1232 960h-384c-26.4 0-63.274-15.274-81.942-33.942l-476.116-476.116c-18.668-18.668-18.668-49.214 0-67.882l412.118-412.118c18.668-18.668 49.214-18.668 67.882 0l476.118 476.118c18.666 18.666 33.94 55.54 33.94 81.94v384c0 26.4-21.6 48-48 48zM992 576c-53.020 0-96 42.98-96 96s42.98 96 96 96 96-42.98 96-96-42.98-96-96-96zM128 416l544 544h-80c-26.4 0-63.274-15.274-81.942-33.942l-476.116-476.116c-18.668-18.668-18.668-49.214 0-67.882l412.118-412.118c18.668-18.668 49.214-18.668 67.882 0l30.058 30.058-416 416z" />
<glyph unicode="&#xe901;" glyph-name="clock" d="M658.744 210.744l-210.744 210.746v282.51h128v-229.49l173.256-173.254zM512 960c-282.77 0-512-229.23-512-512s229.23-512 512-512 512 229.23 512 512-229.23 512-512 512zM512 64c-212.078 0-384 171.922-384 384s171.922 384 384 384c212.078 0 384-171.922 384-384s-171.922-384-384-384z" />
<glyph unicode="&#xe902;" glyph-name="loading2" d="M512-64c-136.76 0-265.334 53.258-362.040 149.96-96.702 96.706-149.96 225.28-149.96 362.040 0 96.838 27.182 191.134 78.606 272.692 50 79.296 120.664 143.372 204.356 185.3l43-85.832c-68.038-34.084-125.492-86.186-166.15-150.67-41.746-66.208-63.812-142.798-63.812-221.49 0-229.382 186.618-416 416-416s416 186.618 416 416c0 78.692-22.066 155.282-63.81 221.49-40.66 64.484-98.114 116.584-166.15 150.67l43 85.832c83.692-41.928 154.358-106.004 204.356-185.3 51.422-81.558 78.604-175.854 78.604-272.692 0-136.76-53.258-265.334-149.96-362.040-96.706-96.702-225.28-149.96-362.040-149.96z" />
</font>
</defs>
</svg>
